{
  "accessors": [
    {
      "bufferView": 2,
      "componentType": 5126,
      "count": 4666,
      "max": [
        1.2172130346298218,
        0.9558370113372803,
        3.3782689571380615
      ],
      "min": [
        -1.2172130346298218,
        -0.9558370113372803,
        0.19974300265312195
      ],
      "type": "VEC3"
    },
    {
      "bufferView": 2,
      "byteOffset": 55992,
      "componentType": 5126,
      "count": 4666,
      "max": [
        1.0,
        1.0,
        1.0
      ],
      "min": [
        -1.0,
        -1.0,
        -1.0
      ],
      "type": "VEC3"
    },
    {
      "bufferView": 3,
      "componentType": 5126,
      "count": 4666,
      "max": [
        1.0,
        1.0,
        1.0,
        1.0
      ],
      "min": [
        -1.0,
        -1.0,
        -1.0,
        -1.0
      ],
      "type": "VEC4"
    },
    {
      "bufferView": 1,
      "componentType": 5126,
      "count": 4666,
      "max": [
        0.9929440021514893,
        0.9958170056343079
      ],
      "min": [
        0.004048999864608049,
        -0.9953749775886536
      ],
      "type": "VEC2"
    },
    {
      "bufferView": 0,
      "componentType": 5125,
      "count": 9981,
      "type": "SCALAR"
    },
    {
      "bufferView": 2,
      "byteOffset": 111984,
      "componentType": 5126,
      "count": 3648,
      "max": [
        1.1357680559158325,
        0.8952999711036682,
        3.3142549991607666
      ],
      "min": [
        -1.1357680559158325,
        -0.8952999711036682,
        0.19974300265312195
      ],
      "type": "VEC3"
    },
    {
      "bufferView": 2,
      "byteOffset": 155760,
      "componentType": 5126,
      "count": 3648,
      "max": [
        1.0,
        1.0,
        1.0
      ],
      "min": [
        -1.0,
        -1.0,
        -1.0
      ],
      "type": "VEC3"
    },
    {
      "bufferView": 3,
      "byteOffset": 74656,
      "componentType": 5126,
      "count": 3648,
      "max": [
        1.0,
        1.0,
        1.0,
        1.0
      ],
      "min": [
        -1.0,
        -1.0,
        -1.0,
        -1.0
      ],
      "type": "VEC4"
    },
    {
      "bufferView": 1,
      "byteOffset": 37328,
      "componentType": 5126,
      "count": 3648,
      "max": [
        0.995639979839325,
        0.9963510036468506
      ],
      "min": [
        0.0011970000341534615,
        -0.9903889894485474
      ],
      "type": "VEC2"
    },
    {
      "bufferView": 0,
      "byteOffset": 39924,
      "componentType": 5125,
      "count": 9921,
      "type": "SCALAR"
    },
    {
      "bufferView": 2,
      "byteOffset": 199536,
      "componentType": 5126,
      "count": 1417,
      "max": [
        1.1357680559158325,
        0.837207019329071,
        3.3782689571380615
      ],
      "min": [
        -1.1357680559158325,
        -0.837207019329071,
        0.19041800498962402
      ],
      "type": "VEC3"
    },
    {
      "bufferView": 2,
      "byteOffset": 216540,
      "componentType": 5126,
      "count": 1417,
      "max": [
        1.0,
        1.0,
        1.0
      ],
      "min": [
        -1.0,
        -1.0,
        -1.0
      ],
      "type": "VEC3"
    },
    {
      "bufferView": 3,
      "byteOffset": 133024,
      "componentType": 5126,
      "count": 1417,
      "max": [
        1.0,
        1.0,
        1.0,
        1.0
      ],
      "min": [
        -1.0,
        -1.0,
        -1.0,
        -1.0
      ],
      "type": "VEC4"
    },
    {
      "bufferView": 1,
      "byteOffset": 66512,
      "componentType": 5126,
      "count": 1417,
      "max": [
        0.9926980137825012,
        0.9643599987030029
      ],
      "min": [
        0.014867999590933323,
        -0.9903889894485474
      ],
      "type": "VEC2"
    },
    {
      "bufferView": 0,
      "byteOffset": 79608,
      "componentType": 5125,
      "count": 6024,
      "type": "SCALAR"
    }
  ],
  "asset": {
    "extras": {
      "author": "Maxemilian Roberts (https://sketchfab.com/maxemilianr)",
      "license": "CC-BY-NC-4.0 (http://creativecommons.org/licenses/by-nc/4.0/)",
      "source": "https://sketchfab.com/3d-models/officebot-ab0286e418b94492ab07c8209bf526cb",
      "title": "OfficeBot"
    },
    "generator": "Sketchfab-12.64.0",
    "version": "2.0"
  },
  "bufferViews": [
    {
      "buffer": 0,
      "byteLength": 103704,
      "name": "floatBufferViews",
      "target": 34963
    },
    {
      "buffer": 0,
      "byteLength": 77848,
      "byteOffset": 103704,
      "byteStride": 8,
      "name": "floatBufferViews",
      "target": 34962
    },
    {
      "buffer": 0,
      "byteLength": 233544,
      "byteOffset": 181552,
      "byteStride": 12,
      "name": "floatBufferViews",
      "target": 34962
    },
    {
      "buffer": 0,
      "byteLength": 155696,
      "byteOffset": 415096,
      "byteStride": 16,
      "name": "floatBufferViews",
      "target": 34962
    }
  ],
  "buffers": [
    {
      "byteLength": 570792,
      "uri": "scene.bin"
    }
  ],
  "images": [
    {
      "uri": "textures/material_0_baseColor.png"
    },
    {
      "uri": "textures/material_0_metallicRoughness.png"
    },
    {
      "uri": "textures/material_0_emissive.png"
    },
    {
      "uri": "textures/material_0_normal.png"
    }
  ],
  "materials": [
    {
      "doubleSided": true,
      "emissiveFactor": [
        1.0,
        1.0,
        1.0
      ],
      "emissiveTexture": {
        "index": 2
      },
      "name": "material_0",
      "normalTexture": {
        "index": 3
      },
      "pbrMetallicRoughness": {
        "baseColorTexture": {
          "index": 0
        },
        "metallicRoughnessTexture": {
          "index": 1
        }
      }
    }
  ],
  "meshes": [
    {
      "name": "Object_0",
      "primitives": [
        {
          "attributes": {
            "NORMAL": 1,
            "POSITION": 0,
            "TANGENT": 2,
            "TEXCOORD_0": 3
          },
          "indices": 4,
          "material": 0,
          "mode": 4
        }
      ]
    },
    {
      "name": "Object_1",
      "primitives": [
        {
          "attributes": {
            "NORMAL": 6,
            "POSITION": 5,
            "TANGENT": 7,
            "TEXCOORD_0": 8
          },
          "indices": 9,
          "material": 0,
          "mode": 4
        }
      ]
    },
    {
      "name": "Object_2",
      "primitives": [
        {
          "attributes": {
            "NORMAL": 11,
            "POSITION": 10,
            "TANGENT": 12,
            "TEXCOORD_0": 13
          },
          "indices": 14,
          "material": 0,
          "mode": 4
        }
      ]
    }
  ],
  "nodes": [
    {
      "children": [
        1
      ],
      "matrix": [
        1.0,
        0.0,
        0.0,
        0.0,
        0.0,
        2.220446049250313e-16,
        -1.0,
        0.0,
        0.0,
        1.0,
        2.220446049250313e-16,
        0.0,
        0.0,
        0.0,
        0.0,
        1.0
      ],
      "name": "Sketchfab_model"
    },
    {
      "children": [
        2,
        3,
        4
      ],
      "name": "9fc616e208674820a5ccda1c21e844f6.obj.cleaner"
    },
    {
      "mesh": 0,
      "name": "Object_2"
    },
    {
      "mesh": 1,
      "name": "Object_3"
    },
    {
      "mesh": 2,
      "name": "Object_4"
    }
  ],
  "samplers": [
    {
      "magFilter": 9729,
      "minFilter": 9987,
      "wrapS": 10497,
      "wrapT": 10497
    }
  ],
  "scene": 0,
  "scenes": [
    {
      "name": "Sketchfab_Scene",
      "nodes": [
        0
      ]
    }
  ],
  "textures": [
    {
      "sampler": 0,
      "source": 0
    },
    {
      "sampler": 0,
      "source": 1
    },
    {
      "sampler": 0,
      "source": 2
    },
    {
      "sampler": 0,
      "source": 3
    }
  ]
}
